<?xml version="1.0" standalone="no"?><!DOCTYPE svg PUBLIC "-//W3C//DTD SVG 1.1//EN" "http://www.w3.org/Graphics/SVG/1.1/DTD/svg11.dtd"><svg class="icon" width="48px" height="48.00px" viewBox="0 0 1024 1024" version="1.1" xmlns="http://www.w3.org/2000/svg"><path fill="#666666" d="M128 287.489089 128 287.489089 128 736.510912C128 771.168339 156.948488 800 192.374954 800L831.625043 800C867.313933 800 896 771.502131 896 736.510912L896 287.489089C896 252.831664 867.051514 224 831.625043 224L192.374954 224C156.686069 224 128 252.497867 128 287.489089L128 287.489089ZM64 287.489089C64 217.07881 121.411848 160 192.374954 160L831.625043 160C902.524576 160 960 217.611275 960 287.489089L960 736.510912C960 806.92119 902.588154 864 831.625043 864L192.374954 864C121.475425 864 64 806.388723 64 736.510912L64 287.489089 64 287.489089ZM400.410388 508.584497C425.364792 494.797966 442.688197 464.525231 442.688197 429.397178 442.688197 381.276416 410.18021 342.266831 370.079576 342.266831 329.978941 342.266831 297.470954 381.276416 297.470954 429.397178 297.470954 465.358568 315.62603 496.231546 341.537487 509.537676 281.635651 518.420154 237.22236 550.881447 237.22236 589.566708 237.22236 635.093358 298.73343 672 374.61118 672 450.48893 672 512 635.093358 512 589.566708 512 549.33113 463.955644 515.828369 400.410388 508.584497L400.410388 508.584497ZM608 416 736 416C753.673114 416 768 401.673112 768 384 768 366.326888 753.673114 352 736 352L608 352C590.326888 352 576 366.326888 576 384 576 401.673112 590.326888 416 608 416L608 416ZM608 544 672 544C689.673114 544 704 529.673112 704 512 704 494.326888 689.673114 480 672 480L608 480C590.326888 480 576 494.326888 576 512 576 529.673112 590.326888 544 608 544L608 544ZM608 672 672 672C689.673114 672 704 657.673114 704 640 704 622.326888 689.673114 608 672 608L608 608C590.326888 608 576 622.326888 576 640 576 657.673114 590.326888 672 608 672L608 672Z" /></svg>
