<?xml version="1.0" standalone="no"?><!DOCTYPE svg PUBLIC "-//W3C//DTD SVG 1.1//EN" "http://www.w3.org/Graphics/SVG/1.1/DTD/svg11.dtd"><svg class="icon" width="48px" height="28.53px" viewBox="0 0 1723 1024" version="1.1" xmlns="http://www.w3.org/2000/svg"><path fill="#666666" d="M1148.412071 0H297.84171c-58.585012 0-106.293165 47.708153-106.293165 106.293165v587.050326c0 58.585012 47.708153 106.293165 106.293165 106.293166h310.628086v153.551241H504.727067c-19.578346 0-35.406051 15.902718-35.406051 35.406051 0 19.578346 15.827705 35.406051 35.406051 35.406051h425.172661c19.578346 0 35.406051-15.902718 35.406051-35.406051 0-19.578346-15.902718-35.406051-35.406051-35.406051h-108.768588V799.636657h327.355944c58.585012 0 106.293165-47.708153 106.293165-106.293166v-587.050326c0-58.660025-47.708153-106.293165-106.368178-106.293165zM679.356911 953.187898V799.636657h70.887114v153.551241h-70.887114zM1183.893135 693.343491c0 19.503333-15.902718 35.406051-35.406051 35.406051h-850.645374c-19.503333 0-35.406051-15.902718-35.406051-35.406051v-23.629038H1183.893135v23.629038z m0-94.516152H262.435659v-492.609186c0-19.503333 15.902718-35.406051 35.406051-35.406051H1148.412071c19.503333 0 35.406051 15.902718 35.406051 35.406051v492.609186h0.075013z" /></svg>
