<?xml version="1.0" standalone="no"?><!DOCTYPE svg PUBLIC "-//W3C//DTD SVG 1.1//EN" "http://www.w3.org/Graphics/SVG/1.1/DTD/svg11.dtd"><svg class="icon" width="48px" height="48.00px" viewBox="0 0 1024 1024" version="1.1" xmlns="http://www.w3.org/2000/svg"><path fill="#666666" d="M847.476434 176.523566l-670.953892 0c-61.755567 0-111.82599 50.071446-111.82599 111.82599l0 447.302936c0 61.754544 50.070422 111.82599 111.82599 111.82599l670.953892 0c61.755567 0 111.82599-50.072469 111.82599-111.82599L959.302424 288.349555C959.303448 226.593988 909.232002 176.523566 847.476434 176.523566zM847.476434 232.436049c9.679463 0 18.792014 2.47538 26.743111 6.823413l-362.164798 323.30266-362.207777-323.342569c7.933701-4.324496 17.023739-6.784527 26.675573-6.784527L847.476434 232.435025zM903.389941 735.651468c0 30.837363-25.09047 55.91453-55.913507 55.91453l-670.953892 0c-30.823037 0-55.912483-25.077167-55.912483-55.91453L120.610059 288.349555c0-0.165776 0.011256-0.326435 0.01228-0.490164l391.432408 349.407227 391.325984-349.313083c0 0.134053 0.00921 0.26299 0.00921 0.39602L903.389941 735.651468z" /></svg>
