<?xml version="1.0" standalone="no"?><!DOCTYPE svg PUBLIC "-//W3C//DTD SVG 1.1//EN" "http://www.w3.org/Graphics/SVG/1.1/DTD/svg11.dtd"><svg class="icon" width="48px" height="48.00px" viewBox="0 0 1024 1024" version="1.1" xmlns="http://www.w3.org/2000/svg"><path fill="#666666" d="M719.124849 957.385836 303.01171 957.385836c-61.285808 0-110.966301-50.096978-110.966301-111.923092L192.045409 173.913958c0-61.826114 49.680493-111.925139 110.966301-111.925139l416.113139 0c61.286832 0 110.967324 50.099025 110.967324 111.925139l0 671.548786C830.092174 907.288858 780.411681 957.385836 719.124849 957.385836zM774.600325 173.913958c0-30.895661-24.839735-55.962569-55.475476-55.962569L303.01171 117.951389c-30.633694 0-55.482639 25.066909-55.482639 55.962569l0 27.981285 527.071254 0L774.600325 173.913958zM774.600325 257.857812 247.529071 257.857812l0 446.828698 527.071254 0L774.600325 257.857812zM774.600325 760.647033 247.529071 760.647033l0 84.815711c0 30.912034 24.848944 55.961546 55.482639 55.961546l416.113139 0c30.635741 0 55.475476-25.049512 55.475476-55.961546L774.600325 760.647033zM511.07135 873.444029c-22.973224 0-41.60149-18.790972-41.60149-41.971927 0-23.183002 18.628266-41.974997 41.60149-41.974997 22.971178 0 41.597397 18.790972 41.597397 41.974997C552.668747 854.653057 534.042527 873.444029 511.07135 873.444029z" /></svg>
