<?xml version="1.0" standalone="no"?><!DOCTYPE svg PUBLIC "-//W3C//DTD SVG 1.1//EN" "http://www.w3.org/Graphics/SVG/1.1/DTD/svg11.dtd"><svg t="1504859126939" class="icon" style="" viewBox="0 0 1024 1024" version="1.1" xmlns="http://www.w3.org/2000/svg" p-id="41388" xmlns:xlink="http://www.w3.org/1999/xlink" width="48" height="48"><defs><style type="text/css"></style></defs><path d="M511.36 70.4c-190.72 0-345.6 154.88-345.6 345.6 0 209.28 218.88 423.04 301.44 503.68 9.6 8.96 16.64 16.64 21.12 20.48 5.76 6.4 14.72 10.24 23.04 10.24 8.96 0 17.28-3.84 23.04-10.24 3.84-4.48 11.52-11.52 21.12-20.48 82.56-80.64 301.44-294.4 301.44-503.68 0-190.72-154.88-345.6-345.6-345.6z m8.32 812.8l-8.32 8.32-8.32-8.32c-71.04-69.12-286.08-279.68-286.08-467.2 0-162.56 131.84-294.4 294.4-294.4s294.4 131.84 294.4 294.4c0 188.16-215.04 398.08-286.08 467.2z" fill="#666666" p-id="41389"></path><path d="M609.28 288H498.56v288h49.28V460.8h61.44c47.36 0 86.4-39.04 86.4-86.4S657.28 288 609.28 288z m0 123.52h-61.44V337.28h61.44c20.48 0 37.12 16.64 37.12 37.12s-16.64 37.12-37.12 37.12zM366.72 288H416v288h-49.28z" fill="#666666" p-id="41390"></path></svg>